# xmcd
#
# Track frame offsets:
#	150
#	15562
#	35068
#	53274
#	70048
#	91118
#	107363
#	127388
#	147997
#	167299
#	184664
#	205372
#
# Disc length: 2956 seconds
#
# Revision: 1
# Processed by: cddbd v1.5.2PL0 Copyright (c) Steve Scherf et al.
# Submitted via: audiograbber 1.83.01
#
DISCID=990b8a0c
DTITLE=Ulf Christiansson - Väckelsesånger Och Psalmer 3
DYEAR=2001
DGENRE=Pop
TTITLE0=Jag Ser Gud Bakom Allt Jag Ser
TTITLE1=Låt Mig Höra Om Jesus
TTITLE2=Jesus För Världen Gav Sitt Liv
TTITLE3=Mäktiga Ting
TTITLE4=Vilken Vän Vi Har I Jesus, Jesu Vänskap
TTITLE5=Fängsla Ditt Öra
TTITLE6=Tron Är Vår Segerkraft
TTITLE7=Lämna Det Helt Åt Jesus
TTITLE8=Herren Kommer
TTITLE9=Soldater Äro Vi
TTITLE10=Hur Ljuvligt Det Är Att Möta
TTITLE11=Jesus Jag Vill Prisa Ditt Namn
EXTD=
EXTT0=
EXTT1=
EXTT2=
EXTT3=
EXTT4=
EXTT5=
EXTT6=
EXTT7=
EXTT8=
EXTT9=
EXTT10=
EXTT11=
PLAYORDER=
